<svg width="313" height="41" viewBox="0 0 313 41" fill="none" xmlns="http://www.w3.org/2000/svg">
<path fill-rule="evenodd" clip-rule="evenodd" d="M215.694 38.3673C219.035 40.1226 222.804 41 227 41C231.196 41 234.965 40.1226 238.306 38.3673C241.648 36.6124 244.266 34.176 246.159 31.0581C248.053 27.9402 249 24.4208 249 20.5002C249 16.5792 248.053 13.0598 246.159 9.94186C244.266 6.82397 241.648 4.38759 238.306 2.6323C234.965 0.877434 231.196 0 227 0C222.804 0 219.035 0.877434 215.694 2.6323C212.352 4.38759 209.734 6.82397 207.841 9.94186C205.947 13.0598 205 16.5792 205 20.5002C205 24.4208 205.947 27.9402 207.841 31.0581C209.734 34.176 212.352 36.6124 215.694 38.3673ZM15.9409 28.0742L12.9768 31.3616V41H0V2H12.9768V16.1514L25.8416 2H40.2167L24.5553 19.1599L41 41H25.7296L15.9409 28.0742ZM288.544 12.1957H275.457V41H262.369V12.1957H251V2H313V12.1957H301.632V41H288.544V12.1957ZM227.5 31C229.088 31 230.523 30.5908 231.804 29.7714C233.085 28.9525 234.105 27.7902 234.863 26.2855C235.621 24.7808 236 23.0189 236 21.0002C236 18.9807 235.621 17.2188 234.863 15.7141C234.105 14.2093 233.085 13.0475 231.804 12.2286C230.523 11.4092 229.088 11 227.5 11C225.912 11 224.477 11.4092 223.196 12.2286C221.914 13.0475 220.895 14.2093 220.137 15.7141C219.379 17.2188 219 18.9807 219 21.0002C219 23.0189 219.379 24.7808 220.137 26.2855C220.895 27.7902 221.914 28.9525 223.196 29.7714C224.477 30.5908 225.912 31 227.5 31ZM192.535 41L205 2H192.535L185.356 24.4529L178.567 2H166.491L159.312 24.174L152.523 2H139L151.466 41H165.545L172.167 20.1629L178.455 41H192.535ZM117 41C112.804 41 109.035 40.1226 105.693 38.3673C102.352 36.6124 99.7339 34.176 97.8404 31.0581C95.9468 27.9402 95 24.4208 95 20.5002C95 16.5792 95.9468 13.0598 97.8404 9.94186C99.7339 6.82397 102.352 4.38759 105.693 2.6323C109.035 0.877434 112.804 0 117 0C121.196 0 124.965 0.877434 128.306 2.6323C131.648 4.38759 134.266 6.82397 136.159 9.94186C138.053 13.0598 139 16.5792 139 20.5002C139 24.4208 138.053 27.9402 136.159 31.0581C134.266 34.176 131.648 36.6124 128.306 38.3673C124.965 40.1226 121.196 41 117 41ZM120.804 29.7714C119.523 30.5908 118.088 31 116.5 31C114.912 31 113.477 30.5908 112.196 29.7714C110.914 28.9525 109.895 27.7902 109.137 26.2855C108.379 24.7808 108 23.0189 108 21.0002C108 18.9807 108.379 17.2188 109.137 15.7141C109.895 14.2093 110.914 13.0475 112.196 12.2286C113.477 11.4092 114.912 11 116.5 11C118.088 11 119.523 11.4092 120.804 12.2286C122.086 13.0475 123.105 14.2093 123.863 15.7141C124.621 17.2188 125 18.9807 125 21.0002C125 23.0189 124.621 24.7808 123.863 26.2855C123.105 27.7902 122.086 28.9525 120.804 29.7714ZM66.5375 2H75.8665V30.8038H94V41H63.1582C60.3983 31.5708 64.9938 22.7187 64.9938 22.7187L61 24.0652C62.093 15.3311 71.2572 7.2497 71.2572 7.2497L62.6815 8.88228C63.5257 6.32568 65.034 3.94002 66.5375 2ZM42 41H62C59.9411 38.8563 56.4987 34.515 55.8541 28.9222C55.8541 28.9222 53.2721 30.963 52.9758 31.2894C52.9758 31.2894 50.6478 22.596 55.0502 15.7389C55.0502 15.7389 51.9597 16.5147 50.7323 17.2086C50.7323 17.2086 50.1865 9.56984 55.1081 2H42V41Z" fill="#021032"></path>
</svg>